<svg xmlns="http://www.w3.org/2000/svg" viewBox="0 0 120 120" width="80" height="80">
  <circle cx="60" cy="60" r="45" fill="none" stroke="#5c74d6" stroke-width="2.5" opacity="0.2"/>
  <ellipse cx="60" cy="60" rx="18" ry="45" fill="none" stroke="#5c74d6" stroke-width="2.5" opacity="0.2"/>
  <line x1="15" y1="60" x2="105" y2="60" stroke="#5c74d6" stroke-width="2" opacity="0.2"/>
  <rect x="47" y="42" width="26" height="36" rx="3" fill="none" stroke="#5c74d6" stroke-width="3"/>
  <line x1="47" y1="54" x2="73" y2="54" stroke="#5c74d6" stroke-width="2"/>
  <line x1="47" y1="66" x2="73" y2="66" stroke="#5c74d6" stroke-width="2"/>
  <circle cx="54" cy="48" r="1.5" fill="#5c74d6"/>
  <circle cx="54" cy="60" r="1.5" fill="#5c74d6"/>
  <circle cx="54" cy="72" r="1.5" fill="#5c74d6"/>
  <circle cx="25" cy="35" r="8" fill="none" stroke="#5c74d6" stroke-width="3"/>
  <circle cx="95" cy="35" r="8" fill="none" stroke="#5c74d6" stroke-width="3"/>
  <circle cx="60" cy="95" r="8" fill="none" stroke="#5c74d6" stroke-width="3"/>
  <line x1="33" y1="38" x2="47" y2="48" stroke="#5c74d6" stroke-width="3" stroke-dasharray="3,3"/>
  <line x1="87" y1="38" x2="73" y2="48" stroke="#5c74d6" stroke-width="3" stroke-dasharray="3,3"/>
  <line x1="60" y1="78" x2="60" y2="87" stroke="#5c74d6" stroke-width="3" stroke-dasharray="3,3"/>
  <path d="M 50 32 A 14 14 0 0 1 70 32" fill="none" stroke="#5c74d6" stroke-width="2.5" stroke-linecap="round"/>
  <path d="M 43 25 A 24 24 0 0 1 77 25" fill="none" stroke="#5c74d6" stroke-width="2.5" stroke-linecap="round"/>
</svg>