<svg xmlns="http://www.w3.org/2000/svg" viewBox="0 0 120 120" width="80" height="80">
  <path d="M 60 15 A 28 28 0 0 0 35 55 C 35 68, 48 72, 48 82 L 72 82 C 72 72, 85 68, 85 55 A 28 28 0 0 0 60 15 Z" fill="none" stroke="#5c74d6" stroke-width="4" stroke-linejoin="round"/>
  <rect x="48" y="82" width="24" height="8" rx="2" fill="none" stroke="#5c74d6" stroke-width="3"/>
  <path d="M 52 90 Q 60 97, 68 90" fill="none" stroke="#5c74d6" stroke-width="3"/>
  <path d="M 45 42 L 55 52 L 65 52 L 75 42" fill="none" stroke="#5c74d6" stroke-width="3" stroke-linecap="round" stroke-linejoin="round"/>
  <circle cx="55" cy="52" r="2.5" fill="#5c74d6"/>
  <circle cx="65" cy="52" r="2.5" fill="#5c74d6"/>
  <line x1="60" y1="5" x2="60" y2="10" stroke="#5c74d6" stroke-width="3" stroke-linecap="round"/>
  <line x1="22" y1="35" x2="28" y2="38" stroke="#5c74d6" stroke-width="3" stroke-linecap="round"/>
  <line x1="98" y1="35" x2="92" y2="38" stroke="#5c74d6" stroke-width="3" stroke-linecap="round"/>
  <line x1="22" y1="55" x2="28" y2="53" stroke="#5c74d6" stroke-width="3" stroke-linecap="round"/>
  <line x1="98" y1="55" x2="92" y2="53" stroke="#5c74d6" stroke-width="3" stroke-linecap="round"/>
</svg>