<svg xmlns="http://www.w3.org/2000/svg" viewBox="0 0 100 100" width="50" height="50">
  <circle cx="50" cy="50" r="35" fill="none" stroke="#5c74d6" stroke-width="4" />
  <circle cx="50" cy="50" r="8" fill="#5c74d6" />
  <path d="M 50 15 C 60 30, 60 40, 50 50 C 40 40, 40 30, 50 15 Z" fill="#5c74d6" />
  <path d="M 50 50 C 60 60, 70 60, 85 50 C 70 40, 60 40, 50 50 Z" fill="#5c74d6" />
  <path d="M 50 50 C 40 60, 40 70, 50 85 C 60 70, 60 60, 50 50 Z" fill="#5c74d6" />
  <path d="M 15 50 C 30 40, 40 40, 50 50 C 40 60, 30 60, 15 50 Z" fill="#5c74d6" />
</svg>